<svg width="34" height="34" viewBox="0 0 34 34" fill="none" xmlns="http://www.w3.org/2000/svg">
<g filter="url(#filter0_i_351_32375)">
<path d="M14.5185 2.47004C15.658 1.16378 17.6884 1.16378 18.8279 2.47004C19.5917 3.34566 20.8095 3.67196 21.9088 3.29556C23.5487 2.73405 25.3071 3.74925 25.6408 5.45024C25.8645 6.59047 26.7559 7.48193 27.8962 7.70561C29.5971 8.0393 30.6123 9.79767 30.0508 11.4376C29.6744 12.5369 30.0007 13.7547 30.8764 14.5185C32.1826 15.658 32.1826 17.6884 30.8764 18.8279C30.0007 19.5917 29.6744 20.8095 30.0508 21.9088C30.6123 23.5487 29.5971 25.3071 27.8962 25.6408C26.7559 25.8645 25.8645 26.7559 25.6408 27.8962C25.3071 29.5971 23.5487 30.6123 21.9088 30.0508C20.8095 29.6744 19.5917 30.0007 18.8279 30.8764C17.6884 32.1826 15.658 32.1826 14.5185 30.8764C13.7547 30.0007 12.5369 29.6744 11.4376 30.0508C9.79767 30.6123 8.0393 29.5971 7.70561 27.8962C7.48193 26.7559 6.59047 25.8645 5.45024 25.6408C3.74925 25.3071 2.73405 23.5487 3.29556 21.9088C3.67196 20.8095 3.34566 19.5917 2.47004 18.8279C1.16378 17.6884 1.16378 15.658 2.47004 14.5185C3.34566 13.7547 3.67196 12.5369 3.29556 11.4376C2.73405 9.79767 3.74925 8.0393 5.45024 7.70561C6.59047 7.48193 7.48193 6.59047 7.70561 5.45024C8.0393 3.74925 9.79767 2.73405 11.4376 3.29556C12.5369 3.67196 13.7547 3.34566 14.5185 2.47004Z" fill="#7F56D9"/>
</g>
<g filter="url(#filter1_d_351_32375)">
<path d="M10.6914 15.453L15.7462 20.5078L24.4018 11.8522" stroke="white" stroke-width="2.77887"/>
</g>
<defs>
<filter id="filter0_i_351_32375" x="1.49023" y="1.49036" width="30.3652" height="33.3657" filterUnits="userSpaceOnUse" color-interpolation-filters="sRGB">
<feFlood flood-opacity="0" result="BackgroundImageFix"/>
<feBlend mode="normal" in="SourceGraphic" in2="BackgroundImageFix" result="shape"/>
<feColorMatrix in="SourceAlpha" type="matrix" values="0 0 0 0 0 0 0 0 0 0 0 0 0 0 0 0 0 0 127 0" result="hardAlpha"/>
<feOffset dy="3"/>
<feGaussianBlur stdDeviation="2.25"/>
<feComposite in2="hardAlpha" operator="arithmetic" k2="-1" k3="1"/>
<feColorMatrix type="matrix" values="0 0 0 0 1 0 0 0 0 1 0 0 0 0 1 0 0 0 0.5 0"/>
<feBlend mode="normal" in2="shape" result="effect1_innerShadow_351_32375"/>
</filter>
<filter id="filter1_d_351_32375" x="5.93169" y="9.35883" width="23.2304" height="19.1576" filterUnits="userSpaceOnUse" color-interpolation-filters="sRGB">
<feFlood flood-opacity="0" result="BackgroundImageFix"/>
<feColorMatrix in="SourceAlpha" type="matrix" values="0 0 0 0 0 0 0 0 0 0 0 0 0 0 0 0 0 0 127 0" result="hardAlpha"/>
<feOffset dy="2.26637"/>
<feGaussianBlur stdDeviation="1.88865"/>
<feComposite in2="hardAlpha" operator="out"/>
<feColorMatrix type="matrix" values="0 0 0 0 0 0 0 0 0 0 0 0 0 0 0 0 0 0 0.29 0"/>
<feBlend mode="normal" in2="BackgroundImageFix" result="effect1_dropShadow_351_32375"/>
<feBlend mode="normal" in="SourceGraphic" in2="effect1_dropShadow_351_32375" result="shape"/>
</filter>
</defs>
</svg>
